<?xml version="1.0" encoding="UTF-8"?>
<svg id="Layer_1" data-name="Layer 1" xmlns="http://www.w3.org/2000/svg" viewBox="0 0 250 150">
  <defs>
    <style>
      .cls-1 {
        fill: #13b383;
      }

      .cls-2 {
        fill: #3e80f0;
      }
    </style>
  </defs>
  <path class="cls-2" d="M11.31,77.02c.31,1.78,3.01,5.64,7.95,5.64,3.07,0,5.35-1.24,6.65-3.52h7.28c-1.66,4.95-7.12,9.55-13.93,9.55-8.78,0-15.23-6.53-15.23-14.55s6.03-14.75,15.17-14.75,14.91,7.38,14.91,14.31c0,1.29-.21,2.43-.42,3.32H11.31ZM27.05,71.72c-.78-4.41-4.11-6.29-7.8-6.29-2.81,0-6.86,1.19-8.16,6.29h15.95Z"/>
  <path class="cls-1" d="M83.74,75.57c0-7.97,7.12-14.08,15.38-14.08s15.28,5.93,15.28,13.99c0,8.63-7.28,14.08-15.28,14.08-8.57,0-15.38-6.45-15.38-13.99ZM107.49,75.62c0-4.79-4.05-8.35-8.37-8.35-3.59,0-8.47,2.8-8.47,8.3,0,4.98,4.11,8.21,8.47,8.21,5.04,0,8.37-3.98,8.37-8.16Z"/>
  <path class="cls-1" d="M117,75.57c0-7.97,7.12-14.08,15.38-14.08s15.28,5.93,15.28,13.99c0,8.63-7.28,14.08-15.28,14.08-8.57,0-15.38-6.45-15.38-13.99ZM140.74,75.62c0-4.79-4.05-8.35-8.37-8.35-3.59,0-8.47,2.8-8.47,8.3,0,4.98,4.1,8.21,8.47,8.21,5.04,0,8.37-3.98,8.37-8.16Z"/>
  <path class="cls-2" d="M181.07,88.71h-6.34v-3.22h-.1c-1.3,1.9-4.31,4.08-9.2,4.08-7.33,0-14.71-5.5-14.71-13.99s7.8-14.08,14.71-14.08c4.21,0,6.7,1.28,8.73,3.22v-11.1h6.91v35.09ZM166.15,83.77c5.2,0,8.52-4.27,8.52-8.25,0-4.32-3.64-8.25-8.52-8.25-5.15,0-8.52,4.36-8.52,8.06,0,4.88,4,8.44,8.52,8.44Z"/>
  <path class="cls-2" d="M186.94,72.2h14.45v5.6h-14.45v-5.6Z"/>
  <path class="cls-2" d="M207.82,53.61h6.91v5.79h-6.91v-5.79ZM207.82,62.39h6.91v26.32h-6.91v-26.32Z"/>
  <path class="cls-2" d="M220.35,62.39h6.39v2.28c1.14-1,3.53-3.18,7.9-3.18,2.49,0,6.29,1,8.68,3.65,2.65,2.89,2.65,7.3,2.65,9.34v14.23h-6.91v-12.99c0-2.18,0-8.44-5.82-8.44-1.25,0-3.48.57-4.73,2.32-1.25,1.61-1.25,4.36-1.25,6.59v12.52h-6.91v-26.32Z"/>
  <path class="cls-1" d="M34.12,88.76h5.87s4.31-25.04,5.32-25.59c0,0,1.33,1.74,3.62,10.84s4.51,13.53,6.8,14.75c0,0,2.15.73,3.45-.35,0,0,1.28-.79,2.11-2.77s1.79-5.26,2.3-7.1,1.21-5.41,1.21-5.84,1.41-7.78,1.41-7.78c0,0,2-10.48,2.52-11.12,0,0,.37-1.09,1.8,6.59s1.87,10.37,2.66,14.72,3.26,19.44,4.34,22.32c0,0,1.19,4.05,1.99,5.42s1.57,2.84,3.68,3,3.33-1.25,3.95-2.35,1.62-2.2,3.11-8.58l2.18-9.58-4.93-3.46s-2.79,12.9-3.94,14.47c0,0-.31.72-1.35-4.14,0,0-3.37-17.08-3.37-18.68,0,0-3.22-18.43-3.79-19.78s-1.66-7.73-4.93-9.44c0,0-1.71-.78-3.63.73s-3.37,6.85-4.41,10.69-3.68,19.26-3.68,19.26c0,0-1.16,5.73-1.57,4.98,0,0-2.09-6.06-2.96-9.51,0,0-2.71-9.47-3.66-11.25-.82-1.54-2.59-5.81-6.5-4.32,0,0-2.74,1.12-4.38,7.34,0,0-2.52,10.5-3.12,14.7s-2.08,11.81-2.08,11.81Z"/>
</svg>